<svg width="32" height="32" viewBox="0 0 32 32" fill="none" xmlns="http://www.w3.org/2000/svg">
<g clip-path="url(#clip0_6761_2018)">
<rect x="32" y="32" width="32" height="32" transform="rotate(-180 32 32)" fill="url(#paint0_linear_6761_2018)"/>
<path d="M7.52441 16.6709C7.52467 17.933 8.54837 18.9561 9.81055 18.9561H9.92773C11.1897 18.9558 12.2126 17.9329 12.2129 16.6709V16.6699H26.5234C27.0757 16.6699 27.5234 17.1176 27.5234 17.6699V25.3838C27.5234 25.9361 27.0757 26.3838 26.5234 26.3838H12.2129C12.2116 27.6449 11.1891 28.6667 9.92773 28.667H9.81055C8.54902 28.667 7.52572 27.645 7.52441 26.3838H5.66699C5.11471 26.3838 4.66699 25.9361 4.66699 25.3838V17.6699C4.66699 17.1176 5.11471 16.6699 5.66699 16.6699H7.52441V16.6709Z" fill="#F31500"/>
<path d="M24.0007 9.66667L18.0146 6.82331C17.802 6.72232 17.6957 6.67183 17.6347 6.68982C17.5811 6.70559 17.5402 6.7455 17.5231 6.79864C17.5036 6.85925 17.5518 6.96768 17.6483 7.18454C17.9938 7.96142 18.5007 9.18331 18.5007 9.66667C18.5007 10.15 17.9938 11.3719 17.6483 12.1488C17.5518 12.3657 17.5036 12.4741 17.5231 12.5347C17.5402 12.5878 17.5811 12.6277 17.6347 12.6435C17.6957 12.6615 17.802 12.611 18.0146 12.51L24.0007 9.66667Z" fill="#5EC0FB"/>
<path d="M26.5234 4.66797C27.0757 4.66797 27.5234 5.11568 27.5234 5.66797V13.3818C27.5234 13.9341 27.0757 14.3818 26.5234 14.3818H12.2129L12.2012 14.6152C12.0841 15.7676 11.1109 16.6668 9.92773 16.667H9.81055C8.62717 16.667 7.65326 15.7677 7.53613 14.6152L7.52441 14.3818H5.66699C5.11471 14.3818 4.66699 13.9341 4.66699 13.3818V5.66797C4.66699 5.11568 5.11471 4.66797 5.66699 4.66797H26.5234Z" fill="#F31500"/>
<path d="M24.0007 9.66601L17.334 6.66602L18.5007 9.66602L17.334 12.666L24.0007 9.66601Z" fill="#5EC0FB"/>
<path d="M24.0007 21.666L17.334 18.666L18.5007 21.666L17.334 24.666L24.0007 21.666Z" fill="#5EC0FB"/>
</g>
<defs>
<linearGradient id="paint0_linear_6761_2018" x1="64" y1="45.3333" x2="32" y2="45.6667" gradientUnits="userSpaceOnUse">
<stop stop-color="#0099F5"/>
<stop offset="1" stop-color="#9AD9FF"/>
</linearGradient>
<clipPath id="clip0_6761_2018">
<rect width="32" height="32" rx="6" fill="white"/>
</clipPath>
</defs>
</svg>
